HIERARCHY
ROOT Hips
{
  OFFSET 0 89.5177 0.535
  CHANNELS 6 Xposition Yposition Zposition Zrotation Xrotation Yrotation
  JOINT Spine
  {
    OFFSET 12.0259 -0.162855 1.69034e-005
    CHANNELS 3 Zrotation Xrotation Yrotation
    JOINT Spine1
    {
      OFFSET 15.3169 -0.0121922 0
      CHANNELS 3 Zrotation Xrotation Yrotation
      JOINT Spine2
      {
        OFFSET 15.3176 -0.0121908 0
        CHANNELS 3 Zrotation Xrotation Yrotation
        JOINT Neck
        {
          OFFSET 19.9142 1.56338 0
          CHANNELS 3 Zrotation Xrotation Yrotation
          JOINT Head
          {
            OFFSET 6.92651 0 0
            CHANNELS 3 Zrotation Xrotation Yrotation
            End Site
            {
              OFFSET 20.7666 0 0
            }
          }
          JOINT LeftShoulder
          {
            OFFSET -6.20654 0.708824 7.28219
            CHANNELS 3 Zrotation Xrotation Yrotation
            JOINT LeftArm
            {
              OFFSET 14.108 0 -1.52588e-005
              CHANNELS 3 Zrotation Xrotation Yrotation
              JOINT LeftForeArm
              {
                OFFSET 28.5802 0 0
                CHANNELS 3 Zrotation Xrotation Yrotation
                JOINT LeftHand
                {
                  OFFSET 27.092 0 0
                  CHANNELS 3 Zrotation Xrotation Yrotation
                  End Site
                  {
                    OFFSET 9.55928 -0.186424 0.145352
                  }
                }
              }
            }
          }
          JOINT RightShoulder
          {
            OFFSET -6.20654 0.708866 -7.28218
            CHANNELS 3 Zrotation Xrotation Yrotation
            JOINT RightArm
            {
              OFFSET 14.108 0 1.52588e-005
              CHANNELS 3 Zrotation Xrotation Yrotation
              JOINT RightForeArm
              {
                OFFSET 28.5802 0 0
                CHANNELS 3 Zrotation Xrotation Yrotation
                JOINT RightHand
                {
                  OFFSET 27.092 0 0
                  CHANNELS 3 Zrotation Xrotation Yrotation
                  End Site
                  {
                    OFFSET 9.55929 -0.186417 -0.145354
                  }
                }
              }
            }
          }
        }
      }
    }
  }
  JOINT LeftUpLeg
  {
    OFFSET 0.005 -0.535 8.837
    CHANNELS 3 Zrotation Xrotation Yrotation
    JOINT LeftLeg
    {
      OFFSET 39.9035 0 0
      CHANNELS 3 Zrotation Xrotation Yrotation
      JOINT LeftFoot
      {
        OFFSET 39.6689 0 0
        CHANNELS 3 Zrotation Xrotation Yrotation
        JOINT LeftToe
        {
          OFFSET 10.1624 13.6296 0
          CHANNELS 3 Zrotation Xrotation Yrotation
          End Site
          {
            OFFSET 8.38147 0 0
          }
        }
      }
    }
  }
  JOINT RightUpLeg
  {
    OFFSET 0.005 -0.535 -8.837
    CHANNELS 3 Zrotation Xrotation Yrotation
    JOINT RightLeg
    {
      OFFSET 39.9035 0 0
      CHANNELS 3 Zrotation Xrotation Yrotation
      JOINT RightFoot
      {
        OFFSET 39.6689 0 0
        CHANNELS 3 Zrotation Xrotation Yrotation
        JOINT RightToe
        {
          OFFSET 10.1624 13.6296 0
          CHANNELS 3 Zrotation Xrotation Yrotation
          End Site
          {
            OFFSET 8.38147 0 0
          }
        }
      }
    }
  }
}
MOTION
Frames:	9
Frame Time:	0.0333333
512.922 85.7866 -152.225 137.917 -82.1211 47.1976 -1.1681 0.0496015 -0.696 -2.33552 0.113841 -1.39066 -2.33552 0.113842 -1.39067 -8.30753e-012 -9.0191e-006 -5.27751e-005 17.4322 7.97296 -5.41311 178.863 -14.4683 -94.5414 -22.1247 -48.0183 0.469844 -6.63064e-006 0 3.97569e-016 -42.526 -22.9248 -26.7889 178.465 8.60221 100.155 69.5865 67.8822 -84.3016 -2.69831 -7.95139e-016 -4.77083e-015 -36.0504 11.9268 16.9459 -17.2566 5.77629 -177.802 -33.6142 0 2.38542e-015 22.3312 2.99987 -0.570782 90 3.55455e-021 6.36111e-015 -14.0362 -6.52075 -179.293 -31.3117 5.96354e-016 2.48481e-016 23.1011 -0.696992 -1.18431 90 -3.22812e-020 -0 
512.928 85.7825 -152.229 137.993 -82.1187 47.2571 -1.16963 0.0462027 -0.691289 -2.33861 0.106967 -1.38131 -2.33861 0.106967 -1.38132 -8.30733e-012 -9.0191e-006 -5.27751e-005 17.3436 7.84034 -5.36908 178.874 -14.4856 -94.4916 -22.2932 -47.7821 0.367629 -6.47612e-006 -3.18055e-015 -5.96354e-016 -42.5287 -22.998 -26.8111 178.456 8.6272 100.185 69.5069 67.8558 -84.2417 -2.67133 -7.95139e-016 -0 -36.1036 11.933 17.0292 -17.2912 5.8834 -177.757 -33.6494 0 7.95139e-016 22.3466 3.08054 -0.574244 90 2.93843e-021 -3.18055e-015 -14.044 -6.5356 -179.275 -31.3172 1.98785e-016 -9.93923e-017 23.1055 -0.71224 -1.18731 90 -7.68375e-021 4.96962e-017 
512.938 85.7828 -152.235 137.894 -82.1126 47.173 -1.17106 0.0347337 -0.70133 -2.34161 0.0842547 -1.40162 -2.34161 0.0842549 -1.40163 -8.30758e-012 -9.0191e-006 -5.27751e-005 17.2573 7.81544 -5.2564 178.87 -14.4875 -94.5098 -22.3789 -47.845 0.275205 -6.32279e-006 6.36111e-015 -1.98785e-016 -42.5016 -22.9946 -26.7675 178.464 8.60322 100.164 69.4679 67.8189 -84.1522 -2.69616 -7.95139e-016 1.59028e-015 -36.106 11.8803 16.9721 -17.2689 5.7806 -177.785 -33.6328 -1.59028e-015 -7.95139e-016 22.3424 3.01613 -0.584606 90 1.21329e-020 -1.59028e-015 -14.0381 -6.53093 -179.282 -31.3229 -1.98785e-016 -4.96962e-017 23.1138 -0.705933 -1.19499 90 -5.23229e-020 -4.96962e-017 
512.95 85.7831 -152.244 137.776 -82.1053 47.0595 -1.17689 0.0160547 -0.715777 -2.35349 0.0472701 -1.43089 -2.35349 0.0472703 -1.4309 -8.30743e-012 -9.0191e-006 -5.27751e-005 17.1955 7.71748 -5.14627 178.854 -14.522 -94.5612 -22.5566 -47.9066 0.0608034 -6.17105e-006 -9.54166e-015 -0 -42.5632 -22.8583 -26.7503 178.474 8.5971 100.107 69.1904 67.8097 -83.9032 -2.65317 -1.59028e-015 -3.18055e-015 -36.1427 11.9025 17.0227 -17.256 5.80478 -177.777 -33.6246 -3.18055e-015 -2.38542e-015 22.3418 3.03525 -0.593336 90 -2.42657e-020 4.77083e-015 -14.0222 -6.54705 -179.278 -31.3161 1.98785e-016 4.47266e-016 23.1184 -0.699908 -1.20487 90 -5.59249e-021 -0 
512.968 85.7835 -152.253 137.717 -82.0975 46.998 -1.18609 -0.00134622 -0.722832 -2.3721 0.0127341 -1.44535 -2.3721 0.0127343 -1.44536 -8.30768e-012 -9.0191e-006 -5.27751e-005 17.1725 7.49656 -5.13054 178.842 -14.5147 -94.6129 -22.6933 -47.9522 -0.155533 -6.0213e-006 -6.36111e-015 -0 -42.6213 -22.7847 -26.8275 178.468 8.60607 100.132 69.1797 67.7546 -83.9245 -2.61388 -1.59028e-015 -3.18055e-015 -36.1763 11.8007 16.9689 -17.2563 5.7985 -177.76 -33.6246 1.59028e-015 3.97569e-015 22.3424 3.04898 -0.609391 90 4.85314e-020 -0 -14.0103 -6.5308 -179.258 -31.3047 1.98785e-016 -2.98177e-016 23.1189 -0.678337 -1.21944 90 2.08015e-020 -4.96962e-017 
512.99 85.7841 -152.261 137.733 -82.1138 46.9962 -1.19238 -0.0138153 -0.725475 -2.38483 -0.0120661 -1.4509 -2.38483 -0.0120659 -1.4509 -8.30738e-012 -9.0191e-006 -5.27751e-005 17.086 7.17621 -5.13925 178.828 -14.5556 -94.6557 -22.8782 -48.1625 -0.362753 -5.87393e-006 3.18055e-015 3.97569e-016 -42.6552 -22.748 -26.8706 178.47 8.59669 100.134 69.207 67.6922 -83.9424 -2.66138 0 -1.59028e-015 -36.1908 11.7161 16.932 -17.2541 5.85546 -177.714 -33.6247 -1.59028e-015 7.95139e-016 22.3492 3.09261 -0.62402 90 -5.82377e-019 -1.59028e-015 -13.9734 -6.51664 -179.218 -31.2755 -1.98785e-016 2.48481e-016 23.1136 -0.672798 -1.2362 90 5.09485e-022 -0 
513.012 85.7848 -152.271 137.755 -82.1388 47.0075 -1.19506 -0.0217415 -0.73251 -2.39034 -0.0277914 -1.45975 -2.39034 -0.0277913 -1.45976 -8.30758e-012 -9.0191e-006 -5.27751e-005 16.9871 6.88957 -5.15469 178.806 -14.5924 -94.7294 -23.064 -48.343 -0.535913 -5.72935e-006 3.18055e-015 -0 -42.5623 -22.6034 -26.7339 178.459 8.65466 100.138 69.3642 67.6396 -84.1544 -2.69836 2.38542e-015 -1.59028e-015 -36.1558 11.6653 16.8658 -17.2234 5.82052 -177.688 -33.6249 -1.59028e-015 7.95139e-016 22.3617 3.05413 -0.645289 90 1.94126e-019 3.18055e-015 -13.94 -6.50465 -179.188 -31.2551 1.98785e-016 3.97569e-016 23.1081 -0.689569 -1.24939 90 6.41744e-021 -0 
513.03 85.7854 -152.278 137.932 -82.1642 47.1833 -1.19671 -0.0258921 -0.737517 -2.39147 -0.0359097 -1.47523 -2.39147 -0.0359095 -1.47524 -8.30748e-012 -9.0191e-006 -5.27751e-005 16.8442 6.52214 -5.18174 178.785 -14.5784 -94.815 -23.1314 -48.335 -0.615829 -5.58794e-006 0 -0 -42.5845 -22.6368 -26.8153 178.457 8.69149 100.109 69.4575 67.6462 -84.2798 -2.64304 1.59028e-015 1.59028e-015 -36.1719 11.5922 16.821 -17.212 5.83571 -177.667 -33.6253 -1.59028e-015 -0 22.3665 3.03902 -0.660478 90 -1.02371e-020 -0 -13.933 -6.503 -179.166 -31.2465 -3.97569e-016 -4.96962e-016 23.1032 -0.69955 -1.26622 90 -6.96802e-021 -4.96962e-017 
513.05 85.7859 -152.284 138.215 -82.2003 47.4504 -1.1981 -0.0340975 -0.738104 -2.39205 -0.0523755 -1.47105 -2.39205 -0.0523753 -1.47106 -8.30718e-012 -9.0191e-006 -5.27751e-005 16.6864 6.4382 -5.24735 178.775 -14.6414 -94.8337 -23.3127 -48.2292 -0.769158 -5.45011e-006 0 -0 -42.6821 -22.7044 -26.9151 178.462 8.64218 100.131 69.3435 67.5897 -84.1565 -2.64111 0 -0 -36.1584 11.6165 16.8673 -17.2203 5.86927 -177.624 -33.6362 -3.18055e-015 -0 22.3725 3.0381 -0.675925 90 1.21329e-020 -0 -13.9371 -6.4773 -179.128 -31.2368 0 -1.98785e-016 23.0862 -0.705934 -1.28245 90 0 -4.96962e-017 
